<svg viewBox="0 0 24 24" xmlns="http://www.w3.org/2000/svg"><g id="_01" data-name="01"><path d="m18.22 2.25h-9.44c-3.141 0-4.3.921-4.491 3.641-2.517.367-3.039 1.909-3.039 4.389v6.99c0 3.392 1.1 4.48 4.53 4.48h9.44c3.138 0 4.3-.92 4.49-3.641 2.518-.367 3.04-1.91 3.04-4.389v-6.99c0-3.392-1.101-4.48-4.53-4.48zm.03 15.172c-.025 2.432-.45 2.828-3.03 2.828h-9.44c-2.605 0-3.03-.418-3.03-2.98v-3.914h15.5zm0-5.566h-15.5v-1.576c0-2.474.489-2.855 2.28-2.961.232-.009.481-.019.75-.019h9.44c2.6 0 3.03.418 3.03 2.98zm3 1.864c0 2.063-.34 2.671-1.5 2.877v-6.317c0-3.391-1.1-4.48-4.53-4.48h-9.442c.128-1.741.727-2.05 3-2.05h9.44c2.605 0 3.03.418 3.03 2.98zm-16.75 4.087a.75.75 0 0 1 .75-.75h1.715a.75.75 0 0 1 0 1.5h-1.719a.75.75 0 0 1 -.746-.75zm3.868 0a.75.75 0 0 1 .75-.75h3.439a.75.75 0 0 1 0 1.5h-3.443a.75.75 0 0 1 -.75-.75z"/></g></svg>