<svg version="1.1" xmlns="http://www.w3.org/2000/svg" xmlns:xlink="http://www.w3.org/1999/xlink" x="0px" y="0px" viewBox="0 0 512 512" style="enable-background:new 0 0 512 512;" xml:space="preserve">
            <g>
                <g>
                    <path d="M187.935,136.886c-28.148,0-51.049,22.9-51.049,51.049c0,28.148,22.9,51.047,51.049,51.047&#10;                        c28.148,0,51.049-22.9,51.049-51.047C238.984,159.787,216.084,136.886,187.935,136.886z M187.937,204.95&#10;                        c-9.383,0-17.016-7.632-17.016-17.015c0-9.383,7.633-17.016,17.016-17.016c9.383,0,17.016,7.633,17.016,17.016&#10;                        C204.953,197.317,197.319,204.95,187.937,204.95z"/>
                </g>
            </g>
            <g>
                <g>
                    <path d="M324.066,273.017c-28.148,0-51.049,22.9-51.049,51.047c0,28.148,22.9,51.049,51.049,51.049&#10;                        c28.148,0,51.049-22.9,51.049-51.049C375.115,295.916,352.214,273.017,324.066,273.017z M324.066,341.08&#10;                        c-9.383,0-17.016-7.633-17.016-17.016c0-9.383,7.633-17.015,17.016-17.015c9.383,0,17.016,7.633,17.016,17.015&#10;                        C341.082,333.447,333.449,341.08,324.066,341.08z"/>
                </g>
            </g>
            <g>
                <g>
                    <path d="M340.222,171.784c-6.644-6.644-17.419-6.644-24.064,0L171.771,316.171c-6.645,6.644-6.645,17.419,0,24.064&#10;                        c3.323,3.323,7.678,4.985,12.032,4.985c4.354,0,8.71-1.662,12.032-4.985l144.388-144.387&#10;                        C346.868,189.203,346.868,178.428,340.222,171.784z"/>
                </g>
            </g>
            <g>
                <g>
                    <path d="M256.001,0C114.843,0,0.002,114.84,0.002,255.999c0,52.1,15.442,101.818,44.77,144.491L1.877,486.277&#10;                        c-3.221,6.441-2.236,14.189,2.493,19.62C7.807,509.844,12.725,512,17.777,512c1.9,0,3.82-0.306,5.685-0.935l102.502-34.619&#10;                        c39.336,23.284,84.11,35.552,130.037,35.552C397.158,511.999,512,397.159,512,255.999S397.16,0,256.001,0z M256.001,476.453&#10;                        c-42.028,0-82.923-11.927-118.266-34.491c-2.891-1.846-6.214-2.793-9.565-2.793c-1.911,0-3.832,0.307-5.686,0.934l-69.517,23.478&#10;                        l28.398-56.794c3.013-6.027,2.36-13.241-1.689-18.627c-28.87-38.408-44.129-84.109-44.129-132.16&#10;                        c0-121.558,98.895-220.454,220.454-220.454s220.454,98.896,220.454,220.454S377.559,476.453,256.001,476.453z"/>
                </g>
            </g>
            </svg>