<?xml version="1.0" encoding="UTF-8" standalone="no"?>
<!DOCTYPE svg PUBLIC "-//W3C//DTD SVG 1.1//EN" "http://www.w3.org/Graphics/SVG/1.1/DTD/svg11.dtd">
<svg width="100%" height="100%" viewBox="0 0 1535 561" version="1.1" xmlns="http://www.w3.org/2000/svg" xmlns:xlink="http://www.w3.org/1999/xlink" xml:space="preserve" xmlns:serif="http://www.serif.com/" style="fill-rule:evenodd;clip-rule:evenodd;stroke-linejoin:round;stroke-miterlimit:2;">
    <g>
        <g transform="matrix(1,0,0,1,-3579.61,-1171.56)">
            <path d="M3866.45,1731.35C3785.07,1700.32 3828.54,1716.35 3759.55,1691.77C3871.76,1556.86 3879.75,1439.33 3850.26,1251.38C3854.15,1249.79 3857.76,1248.95 3861.34,1248.07L3861.32,1248.02L3868.75,1245.07L3876.56,1273.45C3904.14,1423.15 3885.19,1579.78 3804.42,1677.95C3816.5,1681.87 3843.05,1692.21 3878.33,1704.95C3912.02,1629.57 3934.56,1554.04 3941.65,1478.12C3948.52,1404.41 3940.84,1330.16 3914.65,1255.11L3906.47,1230.1L3906.48,1230.1L3923.15,1230.47C3953.49,1231.15 3985.92,1234.02 4018.34,1236.89C4050.19,1239.71 4082.05,1242.53 4111.91,1243.2L4118.27,1243.34L4122.33,1248.52C4161.58,1298.74 4188.88,1366.06 4197.73,1440C4205.81,1507.38 4198.57,1580.44 4171.11,1651.18L4168.93,1656.8L4163.01,1658.27L3892.76,1725.82L3865.92,1732.53L3866.45,1731.35ZM4106.53,1268.62C4051.45,1266.86 3996.67,1259.23 3941.63,1256.68C3991.06,1405.83 3971.02,1551.74 3911.45,1694.36L4149.31,1634.91C4173.47,1569.91 4179.71,1503.05 4172.31,1441.24C4164.35,1374.82 4140.64,1314.39 4106.53,1268.62Z" style="fill:white;fill-rule:nonzero;"/>
        </g>
        <g transform="matrix(1,0,0,1,-3579.61,-1171.56)">
            <path d="M3888.08,1272.49C3916.91,1423.58 3900.99,1584.04 3819.38,1683.22C3831.46,1687.14 3843.05,1692.21 3878.33,1704.95C3912.02,1629.57 3934.56,1554.04 3941.65,1478.12C3948.52,1404.41 3940.84,1330.16 3914.65,1255.11L3888.08,1272.49Z" style="fill:rgb(0,251,219);fill-rule:nonzero;"/>
        </g>
        <g transform="matrix(1,0,0,1,-3579.61,-1171.56)">
            <path d="M4106.53,1268.62C4051.45,1266.86 4012.74,1269.37 3957.68,1268.72C4007.12,1417.87 3984.24,1548.43 3924.67,1691.06L4149.31,1634.91C4173.47,1569.91 4179.71,1503.05 4172.31,1441.24C4164.35,1374.82 4140.64,1314.39 4106.53,1268.62Z" style="fill:rgb(0,251,219);fill-rule:nonzero;"/>
        </g>
        <g transform="matrix(1,0,0,1,-3579.61,-1171.56)">
            <path d="M4102.41,1340.07C4111.05,1347.51 4151.75,1375.8 4142.39,1382.07C4133.46,1388.06 4125.5,1374.61 4107.28,1358.92C4102.01,1365.7 4093.6,1387.77 4082.46,1378.18C4070.89,1368.22 4096.67,1347.45 4102.41,1340.07Z" style="fill:white;"/>
        </g>
        <g transform="matrix(1,0,0,1,-3579.61,-1171.56)">
            <path d="M4012.32,1338.98C4020.97,1346.43 4061.66,1374.71 4052.3,1380.99C4043.38,1386.98 4035.42,1373.53 4017.19,1357.83C4011.92,1364.62 4003.51,1386.69 3992.37,1377.1C3980.8,1367.14 4006.59,1346.37 4012.32,1338.98Z" style="fill:white;"/>
        </g>
        <g transform="matrix(1,0,0,1,-3579.61,-1171.56)">
            <path d="M3995.23,1464.82C4033.32,1537.26 4138.57,1531.07 4143.61,1482.49C4170.8,1600.06 4017.07,1577.48 3995.23,1464.82Z" style="fill:white;fill-rule:nonzero;"/>
        </g>
        <g transform="matrix(1,0,0,1,-3579.61,-1171.56)">
            <path d="M3990.25,1173.18C4009.14,1174.69 4028.86,1185.14 4045.41,1200.75C4060.88,1215.35 4073.59,1234.46 4080.28,1255.02C4074.21,1254.71 4068.05,1254.31 4061.82,1253.82C4056.86,1239.16 4047.71,1225.55 4036.64,1215.1C4024.55,1203.69 4010.15,1196.05 3996.36,1194.95C3982.59,1193.85 3971.91,1199.49 3965.82,1209.45C3960.53,1218.11 3958.7,1230.06 3961.32,1243.71C3955.06,1243.1 3948.83,1242.53 3942.67,1242.02C3938.48,1222.47 3940.88,1205.32 3948.4,1193.01C3956.74,1179.38 3971.36,1171.68 3990.25,1173.18Z" style="fill:white;fill-rule:nonzero;"/>
        </g>
        <g transform="matrix(1,0,0,1,-3579.61,-1171.56)">
            <path d="M3719.5,1281.59L3821.88,1281.59C3826.95,1281.59 3831.1,1285.74 3831.1,1290.81C3831.1,1295.89 3826.95,1300.04 3821.88,1300.04L3719.5,1300.04C3714.42,1300.04 3710.27,1295.89 3710.27,1290.81C3710.27,1285.74 3714.42,1281.59 3719.5,1281.59Z" style="fill:white;"/>
        </g>
        <g transform="matrix(1,0,0,1,-3579.61,-1171.56)">
            <path d="M3778.5,1350.78L3806.7,1350.78C3811.78,1350.78 3815.93,1354.93 3815.93,1360L3815.93,1360.01C3815.93,1365.08 3811.78,1369.23 3806.7,1369.23L3778.5,1369.23C3773.42,1369.23 3769.27,1365.08 3769.27,1360.01L3769.27,1360C3769.27,1354.93 3773.42,1350.78 3778.5,1350.78Z" style="fill:white;"/>
        </g>
        <g transform="matrix(1,0,0,1,-3579.61,-1171.56)">
            <path d="M3668.7,1420.43L3805.4,1420.43C3810.47,1420.43 3814.63,1424.57 3814.63,1429.65C3814.63,1434.73 3810.47,1438.87 3805.4,1438.87L3668.7,1438.87C3663.62,1438.87 3659.47,1434.73 3659.47,1429.65C3659.47,1424.57 3663.62,1420.43 3668.7,1420.43Z" style="fill:white;"/>
        </g>
        <g transform="matrix(1,0,0,1,-3579.61,-1171.56)">
            <path d="M3620.54,1350.78L3744.89,1350.78C3749.96,1350.78 3754.11,1354.93 3754.11,1360L3754.11,1360.01C3754.11,1365.08 3749.96,1369.23 3744.89,1369.23L3620.54,1369.23C3615.47,1369.23 3611.32,1365.08 3611.32,1360.01L3611.32,1360C3611.32,1354.93 3615.47,1350.78 3620.54,1350.78Z" style="fill:white;"/>
        </g>
        <g transform="matrix(1,0,0,1,-3579.61,-1171.56)">
            <path d="M3588.83,1420.43L3617.04,1420.43C3622.11,1420.43 3626.26,1424.57 3626.26,1429.65C3626.26,1434.73 3622.11,1438.87 3617.04,1438.87L3588.83,1438.87C3583.76,1438.87 3579.61,1434.73 3579.61,1429.65C3579.61,1424.57 3583.76,1420.43 3588.83,1420.43Z" style="fill:white;"/>
        </g>
        <g transform="matrix(1,0,0,1,-3579.61,-1171.56)">
            <path d="M3942.59,1171.75C3947.77,1172.15 3953.19,1173.2 3958.75,1174.81C3952.64,1178.64 3947.57,1183.84 3943.72,1190.15C3942.76,1191.72 3941.88,1193.35 3941.08,1195.04C3934.76,1197.31 3930.5,1201.83 3928.48,1208.01C3926.91,1212.85 3926.7,1218.71 3927.96,1225.32L3907.79,1223.78C3903.94,1211.23 3903.57,1200.21 3906.38,1191.58C3910.84,1177.95 3923.27,1170.24 3942.59,1171.75ZM4013.46,1205.48C4023.77,1213.96 4033.49,1223.63 4041.98,1234.02L4021.81,1232.48C4015.41,1225.53 4008.3,1219.16 4000.91,1213.67C3994.9,1209.2 3988.7,1205.3 3982.53,1202.16C3986.41,1200.66 3990.91,1200.04 3995.94,1200.44C4001.69,1200.9 4007.63,1202.67 4013.46,1205.48ZM4052.54,1248.3C4053.7,1250.05 4054.82,1251.81 4055.91,1253.58L4055.91,1253.59L4052.54,1253.4L4052.54,1248.3Z" style="fill:white;fill-rule:nonzero;"/>
        </g>
        <g transform="matrix(1,0,0,1,-3579.61,-1171.56)">
            <path d="M4276.89,1538.91L4298.03,1515.68C4312.67,1526.76 4328,1533.79 4346.59,1533.79C4361.23,1533.79 4370.05,1528.46 4370.05,1519.3C4370.05,1510.99 4364.48,1506.72 4337.29,1500.33C4304.54,1492.66 4283.39,1484.35 4283.39,1454.29C4283.39,1427.23 4307.09,1409.32 4340.32,1409.32C4364.01,1409.32 4384.23,1416.14 4400.72,1428.29L4382.13,1453.01C4367.73,1443.85 4353.56,1438.31 4339.85,1438.31C4326.14,1438.31 4318.94,1444.06 4318.94,1451.74C4318.94,1461.54 4325.91,1464.74 4354.02,1471.34C4387.01,1479.23 4405.6,1490.1 4405.6,1516.53C4405.6,1546.15 4380.97,1562.78 4345.89,1562.78C4321.26,1562.78 4296.41,1554.89 4276.89,1538.91Z" style="fill:white;fill-rule:nonzero;"/>
        </g>
        <g transform="matrix(1,0,0,1,-3579.61,-1171.56)">
            <path d="M4494.81,1411.45L4530.59,1411.45L4530.59,1470.49L4596.57,1470.49L4596.57,1411.45L4632.35,1411.45L4632.35,1560.65L4596.57,1560.65L4596.57,1500.76L4530.59,1500.76L4530.59,1560.65L4494.81,1560.65L4494.81,1411.45Z" style="fill:white;fill-rule:nonzero;"/>
        </g>
        <g transform="matrix(1,0,0,1,-3579.61,-1171.56)">
            <path d="M4857.7,1486.05C4857.7,1460.47 4837.26,1439.16 4808.45,1439.16C4779.64,1439.16 4759.66,1460.05 4759.66,1486.05C4759.66,1511.63 4780.11,1532.94 4808.91,1532.94C4837.72,1532.94 4857.7,1512.05 4857.7,1486.05ZM4722.25,1486.05C4722.25,1443.64 4758.73,1408.9 4808.91,1408.9C4859.1,1408.9 4895.11,1443.21 4895.11,1486.05C4895.11,1528.46 4858.63,1563.21 4808.45,1563.21C4758.27,1563.21 4722.25,1528.89 4722.25,1486.05Z" style="fill:white;fill-rule:nonzero;"/>
        </g>
        <g transform="matrix(1,0,0,1,-3579.61,-1171.56)">
            <path d="M5049.14,1486.69C5067.03,1486.69 5077.48,1476.89 5077.48,1463.67C5077.48,1448.97 5066.33,1441.08 5048.44,1441.08L5020.79,1441.08L5020.79,1486.69L5049.14,1486.69ZM4985.01,1411.45L5051.46,1411.45C5090.26,1411.45 5113.72,1432.55 5113.72,1463.46C5113.72,1497.99 5084.45,1515.89 5047.97,1515.89L5020.79,1515.89L5020.79,1560.65L4985.01,1560.65L4985.01,1411.45Z" style="fill:white;fill-rule:nonzero;"/>
        </g>
    </g>
</svg>
