<svg enable-background="new 0 0 32 32" viewBox="0 0 32 32" xmlns="http://www.w3.org/2000/svg"><g id="Grid" display="none"/><g id="Credit_Card"/><g id="Receipt"/><g id="No_Balance"/><g id="Online_Payment"/><g id="Wallet_1_"/><g id="Balance_Limit"/><g id="Invoice"/><g id="Money"/><g id="Payment"/><g id="Coin"/><g id="Insert_Card"/><g id="Global_Payment"/><g id="Bill"/><g id="Transaction"/><g id="Payment_Method"/><g id="Secure_Payment"><path d="m26.75 3.158h-21.5c-2.288 0-4.15 1.862-4.15 4.15v13.97c0 2.288 1.862 4.15 4.15 4.15h11.87c.497 0 .9-.403.9-.9s-.403-.9-.9-.9h-11.87c-1.296 0-2.35-1.054-2.35-2.35v-7.23h26.2v1.54c0 .497.403.9.9.9s.9-.403.9-.9v-8.279c0-2.288-1.862-4.151-4.15-4.151zm-21.5 1.801h21.5c1.296 0 2.35 1.054 2.35 2.35v.855h-26.2v-.855c0-1.296 1.054-2.35 2.35-2.35zm-2.35 7.288v-2.282h26.2v2.282z"/><path d="m6.308 17.735h2.757c.497 0 .9-.403.9-.9s-.403-.9-.9-.9h-2.757c-.497 0-.9.403-.9.9s.403.9.9.9z"/><path d="m6.308 21.124h5.514c.497 0 .9-.403.9-.9s-.403-.9-.9-.9h-5.514c-.497 0-.9.403-.9.9s.403.9.9.9z"/><path d="m26 20.881-1.611 1.299-.35-.446c-.306-.389-.873-.46-1.264-.152-.391.307-.46.872-.153 1.264l.913 1.164c.149.189.367.312.606.339.034.004.068.006.102.006.205 0 .404-.07.565-.199l2.321-1.871c.387-.313.448-.879.136-1.266-.311-.389-.878-.449-1.265-.138z"/><path d="m29.831 18.416-4.012-2.017c-.547-.274-1.197-.275-1.743.001l-4.01 2.015c-.667.334-1.086 1.033-1.07 1.78.042 1.914.602 6.566 4.877 8.423.341.148.708.223 1.075.223s.733-.074 1.074-.223c4.275-1.856 4.835-6.509 4.877-8.422.018-.747-.402-1.446-1.068-1.78zm-4.526 8.552c-.227.098-.487.098-.715 0-3.322-1.442-3.761-5.244-3.795-6.812-.001-.057.028-.107.078-.133l4.009-2.015c.021-.01.043-.016.065-.016s.043.005.063.015l4.012 2.017c.049.024.078.074.077.132-.034 1.568-.473 5.369-3.794 6.812z"/></g><g id="Add_Payment"/><g id="Reduce_Payment"/><g id="ATM"/><g id="Transfer"/><g id="Bank"/><g id="Money_Bag"/><g id="Online_Payment_1_"/><g id="Online_Banking"/><g id="Banking"/></svg>